<?xml version="1.0" encoding="UTF-8"?>
<svg width="30px" height="30px" viewBox="0 0 30 30" version="1.1" xmlns="http://www.w3.org/2000/svg" xmlns:xlink="http://www.w3.org/1999/xlink">
    <!-- Generator: Sketch 59 (86127) - https://sketch.com -->
    <title>编组 69</title>
    <desc>Created with Sketch.</desc>
    <g id="页面-1" stroke="none" stroke-width="1" fill="none" fill-rule="evenodd">
        <g id="云-报告" transform="translate(-1107.000000, -6707.000000)">
            <g id="编组-93" transform="translate(243.000000, 6090.000000)">
                <g id="编组-72" transform="translate(36.000000, 89.000000)">
                    <g id="编组-54" transform="translate(0.000000, 0.858377)">
                        <g id="编组-71" transform="translate(828.000000, 527.172712)">
                            <g id="编组-69">
                                <rect id="矩形复制-18" stroke="#537EF3" stroke-width="2" fill="#FFFFFF" x="1" y="1" width="28" height="27.8963731" rx="2"></rect>
                                <g id="放大" transform="translate(5.000000, 4.982729)" fill="#537EF3" fill-rule="nonzero">
                                    <path d="M15.4693325,17.9456557 C13.902491,18.9771148 12.0140744,19.579324 9.98144001,19.579324 C4.55729851,19.579324 0.1601576,15.2909538 0.1601576,10.0009877 C0.1601576,4.71102154 4.55729851,0.422651379 9.98144001,0.422651379 C15.4055815,0.422651379 19.8027224,4.71102154 19.8027224,10.0009877 C19.8027224,12.2021745 19.0413832,14.2299509 17.7615129,15.8474764 L19.7126133,17.750313 C20.3092496,18.3321905 20.3094548,19.2753991 19.7125344,19.8575534 L19.6515181,19.9170604 C19.0548381,20.4989805 18.0875858,20.4991316 17.4908294,19.9171373 L15.4693323,17.9456453 L15.4693325,17.9456557 Z M9.98144001,17.4508048 C14.2002264,17.4508048 17.6202152,14.1154153 17.6202152,10.0009877 C17.6202152,5.88656011 14.2002264,2.55117056 9.98144001,2.55117056 C5.76265359,2.55117056 2.3426648,5.88656011 2.3426648,10.0009877 C2.3426648,14.1154153 5.76265359,17.4508048 9.98144001,17.4508048 Z M9.52108813,15.3223027 L10.4417657,15.3223027 C10.976528,15.3223027 11.2163964,15.0883507 11.2163964,14.5668167 L11.2163964,11.2054166 L14.6630773,11.2054166 C15.1978396,11.2054166 15.437708,10.9714817 15.437708,10.4499477 L15.437708,9.55204467 C15.437708,9.03051065 15.1978396,8.79657575 14.6630773,8.79657575 L11.2164183,8.79657575 L11.2164183,5.43517569 C11.2164183,4.91364166 10.9765498,4.67970676 10.4417875,4.67970676 L9.52109686,4.67970676 C8.98633458,4.67970676 8.74646613,4.91364166 8.74646613,5.43517569 L8.74646613,8.79659703 L5.2998071,8.79659703 C4.76504482,8.79659703 4.52517637,9.03053193 4.52517637,9.55206596 L4.52517637,10.449969 C4.52517637,10.971503 4.76504482,11.2054379 5.2998071,11.2054379 L8.74648795,11.2054379 L8.74648795,14.5668593 C8.74646203,15.0883678 8.98633022,15.3223027 9.5210925,15.3223027 L9.52108813,15.3223027 Z" id="形状"></path>
                                </g>
                            </g>
                        </g>
                    </g>
                </g>
            </g>
        </g>
    </g>
</svg>