<?xml version="1.0" encoding="UTF-8"?>
<svg width="23px" height="19px" viewBox="0 0 23 19" version="1.1" xmlns="http://www.w3.org/2000/svg" xmlns:xlink="http://www.w3.org/1999/xlink">
    <!-- Generator: Sketch 59 (86127) - https://sketch.com -->
    <title>文件复制 2</title>
    <desc>Created with Sketch.</desc>
    <g id="页面-1" stroke="none" stroke-width="1" fill="none" fill-rule="evenodd">
        <g id="云-报告" transform="translate(-1119.000000, -6211.000000)" fill="#000000" fill-rule="nonzero">
            <g id="编组-93" transform="translate(243.000000, 6090.000000)">
                <g id="编组-72" transform="translate(36.000000, 89.000000)">
                    <g id="编组-54" transform="translate(0.000000, 0.858377)">
                        <g id="编组-68" transform="translate(824.000000, 15.944732)">
                            <g id="编组-67" transform="translate(16.000000, 15.944732)">
                                <g id="编组-73">
                                    <g id="编组-74" transform="translate(0.000000, 0.000000)">
                                        <g id="文件复制-2" transform="translate(0.000000, 0.000000)">
                                            <path d="M21.5475982,2.83061281 L13.8958744,2.83061281 L11.3992136,0.211182788 L11.3992136,0.211182819 C11.2712318,0.0770352378 11.0857753,0 10.8907519,0 L0.673400958,0 L0.673400922,0 C0.301547841,0 0,0.274893619 0,0.613874661 L0,17.3230434 L0,17.3230513 C-0.000405816376,17.6622092 0.300867585,17.9374532 0.672912825,17.9378238 C0.673078331,17.9378238 0.673243837,17.9378238 0.673409344,17.9378238 L21.5475816,17.9378238 L21.5475816,17.9378238 C21.9196268,17.9383227 22.2216739,17.6637861 22.2222222,17.3246264 C22.2222222,17.3244001 22.2222222,17.3241737 22.2222222,17.3239474 L22.2222222,3.44425981 L22.2222222,3.44427294 C22.2222222,3.10523934 21.920498,2.83049287 21.5485892,2.83061023 C21.5482581,2.83061034 21.547927,2.83061067 21.5475959,2.83061122 L21.5475982,2.83061281 Z M1.34675531,1.22775455 L10.5838778,1.22775455 L12.1114938,2.83061281 L1.3469859,2.83061281 L1.34675531,1.22775455 Z M20.8740766,16.7100744 L1.34675531,16.7100744 L1.34675531,4.05812915 L20.8740766,4.05812915 L20.8740766,16.7100744 Z M7.22920047,8.25261905 L7.22920047,8.25261896 C7.22920047,8.59165255 7.53069402,8.86649362 7.90260283,8.86649362 L16.2445853,8.86649362 L16.2445854,8.86649362 C16.6164269,8.8599871 16.9120769,8.57992115 16.9049382,8.24095062 C16.8979937,7.91114344 16.6063731,7.64529931 16.2445835,7.63897027 L7.90260095,7.63897027 L7.90260097,7.63897027 C7.53078825,7.63897027 7.2293369,7.91367295 7.22920047,8.25261896 L7.22920047,8.25261905 Z M16.2445911,11.8675807 L7.90260859,11.8675807 L7.90260857,11.8675807 C7.53069976,11.867638 7.22932143,12.1425251 7.22932143,12.4815604 C7.22932143,12.8205135 7.53078816,13.0952739 7.90260857,13.0953317 L16.2445911,13.0953317 L16.244591,13.0953317 C16.6164998,13.0952745 16.9178782,12.8203873 16.9178782,12.481352 C16.9178782,12.142399 16.6164115,11.8676385 16.244591,11.8675807 L16.2445911,11.8675807 Z M5.20900274,7.63896686 L4.3860401,7.63896686 L4.38604008,7.63896686 C4.01419853,7.64547337 3.71854851,7.92553934 3.72568726,8.26450987 C3.73263172,8.59431704 4.02425235,8.86016117 4.386042,8.86649021 L5.20900465,8.86649021 L5.20900463,8.86649021 C5.58084618,8.87299672 5.88806809,8.6034804 5.89520492,8.26450987 C5.90234235,7.92553758 5.60669173,7.64547283 5.2348521,7.63896686 C5.22623727,7.63881612 5.21762005,7.63881612 5.2090052,7.63896686 L5.20900274,7.63896686 Z M5.20900274,11.8675807 L4.3860401,11.8675807 L4.38604007,11.8675807 C4.01413127,11.867638 3.71268953,12.1425251 3.71275294,12.4815604 C3.71281577,12.8205135 4.01421966,13.0952739 4.38604007,13.0953318 L5.20900272,13.0953318 L5.20900269,13.0953318 C5.5809115,13.095389 5.88245508,12.820594 5.8825185,12.4815604 C5.88258133,12.1425268 5.58114017,11.8676385 5.20923136,11.8675807 C5.20915553,11.8675807 5.20907969,11.8675807 5.20900385,11.8675807 L5.20900274,11.8675807 Z" id="形状"></path>
                                        </g>
                                    </g>
                                </g>
                            </g>
                        </g>
                    </g>
                </g>
            </g>
        </g>
    </g>
</svg>