<?xml version="1.0" encoding="UTF-8"?>
<svg width="23px" height="18px" viewBox="0 0 23 18" version="1.1" xmlns="http://www.w3.org/2000/svg" xmlns:xlink="http://www.w3.org/1999/xlink">
    <!-- Generator: Sketch 59 (86127) - https://sketch.com -->
    <title>进程复制</title>
    <desc>Created with Sketch.</desc>
    <g id="页面-1" stroke="none" stroke-width="1" fill="none" fill-rule="evenodd">
        <g id="云-报告" transform="translate(-1119.000000, -6245.000000)" fill="#000000" fill-rule="nonzero">
            <g id="编组-93" transform="translate(243.000000, 6090.000000)">
                <g id="编组-72" transform="translate(36.000000, 89.000000)">
                    <g id="编组-54" transform="translate(0.000000, 0.858377)">
                        <g id="编组-68" transform="translate(824.000000, 15.944732)">
                            <g id="编组-67" transform="translate(16.000000, 15.944732)">
                                <g id="编组-75" transform="translate(0.000000, 33.882556)">
                                    <g id="编组-126" transform="translate(0.000000, 0.000000)">
                                        <g id="进程复制" transform="translate(0.000000, 0.000000)">
                                            <path d="M4.16666667,13.5329105 L18.0555556,13.5329105 L18.0555556,12.3026459 L4.16666667,12.3026459 L4.16666667,13.5329105 Z M9.72222222,6.15132295 L4.16666667,6.15132295 L4.16666667,11.0723813 L9.72222222,11.0723813 L9.72222222,6.15132295 Z M11.1111111,9.84211672 L18.0555556,9.84211672 L18.0555556,8.61185213 L11.1111111,8.61185213 L11.1111111,9.84211672 Z M11.1111111,7.38158754 L18.0555556,7.38158754 L18.0555556,6.15132295 L11.1111111,6.15132295 L11.1111111,7.38158754 Z M20.8333333,0 C21.5988889,0 22.2222222,0.47855 22.2222222,1.0625 L22.2222222,15.9375 C22.2222222,16.5223 21.5988889,17 20.8333333,17 L1.38888889,17 C0.622222222,17 0,16.52145 0,15.9375 L0,1.0625 C0,0.4777 0.622222222,0 1.38888889,0 L20.8333333,0 Z M17.3611111,1.23026459 L17.3611111,1.23026459 C16.9772613,1.21694182 16.6538954,1.48177488 16.6388563,1.82178541 C16.6238158,2.16179595 16.9227951,2.44823038 17.3066449,2.46155184 C17.3251639,2.46219459 17.3437044,2.46218147 17.3622222,2.4615125 L17.3622222,2.4615125 C17.7460481,2.44764617 18.0445095,2.1607897 18.0288563,1.82080031 C18.0140796,1.49987042 17.7234439,1.24283931 17.361111,1.2302637 L17.3611111,1.23026459 Z M4.86111111,1.23026459 L4.86111111,1.23026459 C4.47758029,1.24949017 4.18426215,1.54047965 4.20596571,1.88020761 C4.22595462,2.19308311 4.50789496,2.44282298 4.86111111,2.46052918 L14.5833333,2.46052918 L14.5833334,2.46052918 C14.9668642,2.4413036 15.2601823,2.15031412 15.2384788,1.81058616 C15.2184898,1.49771065 14.9365495,1.24797079 14.5833334,1.23026459 L4.86111113,1.23026459 L4.86111111,1.23026459 Z M2.08333333,1.23026459 L2.0833333,1.23026459 C1.69948348,1.21694182 1.37611759,1.48177488 1.36107853,1.82178541 C1.34603799,2.16179595 1.64501733,2.44823038 2.02886716,2.46155184 C2.0473861,2.46219459 2.06592662,2.46218147 2.08444442,2.4615125 L2.08444438,2.4615125 C2.46827034,2.44764617 2.76673171,2.1607897 2.7510785,1.82080031 C2.73630187,1.49987042 2.44566617,1.24283931 2.08333327,1.2302637 L2.08333333,1.23026459 Z M20.8333333,14.7631622 L20.8333333,4.69737272 C20.8333333,4.14335166 20.2111111,3.69079377 19.4444444,3.69079377 L2.77777778,3.69079377 C2.01111111,3.69079377 1.38888889,4.14415693 1.38888889,4.69737272 L1.38888889,14.7631622 C1.38888889,15.3171832 2.01111111,15.7697411 2.77777778,15.7697411 L19.4444444,15.7697411 C20.2111111,15.7697411 20.8333333,15.316378 20.8333333,14.7631622 Z M20.1388889,2.46052918 L20.1388889,2.46052918 C20.5227387,2.47385196 20.8461046,2.20901888 20.8611436,1.86900835 C20.8761842,1.52899782 20.5772048,1.24256339 20.193355,1.22924193 C20.1748361,1.22859917 20.1562955,1.22861229 20.1377777,1.22928126 L20.1377777,1.22928126 C19.7539518,1.24314761 19.4554904,1.53000406 19.4711436,1.86999345 C19.4859203,2.19092335 19.7765559,2.44795445 20.1388888,2.46053006 L20.1388889,2.46052918 Z" id="形状"></path>
                                        </g>
                                    </g>
                                </g>
                            </g>
                        </g>
                    </g>
                </g>
            </g>
        </g>
    </g>
</svg>