<?xml version="1.0" encoding="UTF-8"?>
<svg width="30px" height="30px" viewBox="0 0 30 30" version="1.1" xmlns="http://www.w3.org/2000/svg" xmlns:xlink="http://www.w3.org/1999/xlink">
    <!-- Generator: Sketch 59 (86127) - https://sketch.com -->
    <title>归位</title>
    <desc>Created with Sketch.</desc>
    <g id="页面-1" stroke="none" stroke-width="1" fill="none" fill-rule="evenodd">
        <g id="云-报告" transform="translate(-1197.000000, -6707.000000)">
            <g id="编组-93" transform="translate(243.000000, 6090.000000)">
                <g id="编组-72" transform="translate(36.000000, 89.000000)">
                    <g id="编组-54" transform="translate(0.000000, 0.858377)">
                        <g id="编组-71" transform="translate(828.000000, 527.172712)">
                            <g id="归位" transform="translate(90.000000, 0.000000)">
                                <rect id="矩形复制-18" stroke="#537EF3" stroke-width="2" fill="#FFFFFF" x="1" y="1" width="28" height="27.8963731" rx="2"></rect>
                                <path d="M15.0000029,21.9240266 L15.0000029,21.9240266 C18.8660119,21.9240266 22.0000195,18.8008447 22.0000195,14.9481981 C22.0000195,11.0955516 18.8660119,7.97236963 15.0000029,7.97236963 L15.0000029,7.97236963 C11.1340104,7.97236963 8.00000288,11.0955516 8.00000288,14.9481981 C8.00000288,18.8008447 11.1340104,21.9240266 15.0000029,21.9240266 L15.0000029,21.9240266 Z M15.0000116,23.9171205 L15.0000112,23.9171205 C10.0294391,23.9171205 6.00000077,19.9016008 6.00000077,14.9481981 C6.00000077,9.99479544 10.0294391,5.97927577 15.0000112,5.97927577 L15.0000108,5.97927577 C19.970583,5.97927577 24.0000213,9.99479544 24.0000213,14.9481981 C24.0000213,19.9016008 19.970583,23.9171205 15.0000108,23.9171205 L15.0000116,23.9171205 Z M12.0000081,14.9481981 L12.0000081,14.9481977 C12.0000081,16.59933 13.3431542,17.9378385 15.0000081,17.9378385 C16.6568671,17.9378385 18.0000081,16.599332 18.0000081,14.9481977 C18.0000081,14.9481977 18.0000081,14.9481977 18.0000081,14.9481976 L18.0000081,14.9481976 C18.0000081,13.2970653 16.6568671,11.9585568 15.0000081,11.9585568 C13.3431562,11.9585568 12.0000081,13.2970653 12.0000081,14.9481976 L12.0000081,14.9481981 Z M15.0000105,4.98272884 L15.0000105,4.98272884 C15.6666784,4.98272884 16.0000105,5.3149118 16.0000105,5.97927577 L16.0000105,8.96891656 C16.0000105,9.63328053 15.6666784,9.96546348 15.0000105,9.96546348 L15.0000105,9.96546348 C14.3333448,9.96546348 14.0000105,9.63328053 14.0000105,8.96891656 L14.0000105,5.97927577 C14.0000105,5.3149118 14.3333448,4.98272884 15.0000105,4.98272884 Z M15.0000105,19.9309328 L15.0000105,19.9309328 C15.6666784,19.9309328 16.0000105,20.2631157 16.0000105,20.9274797 L16.0000105,23.9171205 C16.0000105,24.5814844 15.6666784,24.9136674 15.0000105,24.9136674 L15.0000105,24.9136674 C14.3333448,24.9136674 14.0000105,24.5814844 14.0000105,23.9171205 L14.0000105,20.9274797 C14.0000105,20.2631157 14.3333448,19.9309328 15.0000105,19.9309328 Z M20.0000175,14.9481981 L20.0000175,14.9481981 C20.0000175,14.2838342 20.3333518,13.9516512 21.0000175,13.9516512 L24.0000175,13.9516512 C24.6666889,13.9516512 25.0000175,14.2838342 25.0000175,14.9481981 L25.0000175,14.9481981 C25.0000175,15.6125621 24.6666889,15.9447451 24.0000175,15.9447451 L21.0000175,15.9447451 C20.3333518,15.9447451 20.0000175,15.6125621 20.0000175,14.9481981 L20.0000175,14.9481981 Z M5,14.9481981 L5,14.9481981 C5,14.2838342 5.33333437,13.9516512 6,13.9516512 L9,13.9516512 C9.66667145,13.9516512 10,14.2838342 10,14.9481981 L10,14.9481981 C10,15.6125621 9.66667145,15.9447451 9,15.9447451 L6,15.9447451 C5.33333437,15.9447451 5,15.6125621 5,14.9481981 Z" id="形状" fill="#537EF3" fill-rule="nonzero"></path>
                            </g>
                        </g>
                    </g>
                </g>
            </g>
        </g>
    </g>
</svg>