<?xml version="1.0" encoding="UTF-8"?>
<svg width="22px" height="25px" viewBox="0 0 22 25" version="1.1" xmlns="http://www.w3.org/2000/svg" xmlns:xlink="http://www.w3.org/1999/xlink">
    <!-- Generator: Sketch 59 (86127) - https://sketch.com -->
    <title>样本（图例）</title>
    <desc>Created with Sketch.</desc>
    <g id="页面-1" stroke="none" stroke-width="1" fill="none" fill-rule="evenodd">
        <g id="编组-93备份" transform="translate(-876.000000, -122.000000)">
            <g id="编组-72" transform="translate(36.000000, 89.000000)">
                <g id="编组-54" transform="translate(0.000000, 0.858377)">
                    <g id="编组-68" transform="translate(824.000000, 15.944732)">
                        <g id="编组-67" transform="translate(16.000000, 17.000000)">
                            <g id="样本（图例）">
                                <g id="形状-2" transform="translate(2.000000, 0.000000)" fill="#000000" fill-rule="nonzero">
                                    <path d="M17.9987825,4.65550792 C17.998677,4.65388396 17.9984924,4.65228576 17.9983869,4.65066178 C17.9974376,4.63516963 17.9958819,4.61983225 17.993957,4.60462342 C17.9936669,4.60243235 17.9934032,4.60024128 17.9931131,4.59805021 C17.9834094,4.5268534 17.9633425,4.45895599 17.9343367,4.39577596 C17.9342048,4.39549241 17.934073,4.39520885 17.9339412,4.39492531 C17.91957,4.36368317 17.9030368,4.33357534 17.8845257,4.30483358 C17.8824953,4.30168876 17.8804649,4.29856971 17.8783818,4.29547643 C17.8702865,4.28333533 17.8619539,4.27137467 17.8531466,4.25977486 C17.8499032,4.25547006 17.8465016,4.25126836 17.8431528,4.24704089 C17.8365341,4.23866326 17.8297309,4.23041456 17.8227695,4.22234626 C17.817733,4.21646904 17.8126174,4.21066915 17.80737,4.20494659 C17.802439,4.1995849 17.7973498,4.19442945 17.7922869,4.18924823 C17.7868022,4.18357724 17.7816338,4.17772578 17.7759381,4.17220946 L13.6585659,0.218179851 C13.541962,0.102671967 13.3864365,0.0249791029 13.2127462,0.00515643327 C13.2122715,0.00510486893 13.2118233,0.00505332979 13.2113486,0.00500176546 C13.1944461,0.00309423781 13.177438,0.00165071359 13.1602454,0.000877399742 C13.1564219,0.000696962363 13.1525984,0.000722731934 13.1487749,0.000593858887 C13.1408115,0.000361857176 13.1328481,-9.76996262e-14 13.1248319,-9.76996262e-14 L0.750065707,-9.76996262e-14 C0.335728556,-9.76996262e-14 0,0.328195516 0,0.733621656 L0,22.7446644 C0,23.1500628 0.335731133,23.4782609 0.750065707,23.4782609 L17.2499601,23.4782609 C17.6642972,23.4782609 18,23.1500654 18,22.7446644 L18,4.69608998 C18,4.68246208 17.9995336,4.66893495 17.9987864,4.65550857 L17.9987825,4.65550792 Z M13.8749426,2.48267712 L15.4154722,3.96211249 L13.8749426,3.96211249 L13.8749426,2.48267712 L13.8749426,2.48267712 Z M16.4998157,22.0106794 L1.49973844,22.0106794 L1.49973844,1.46720991 L12.3747648,1.46720991 L12.3747648,4.69606413 C12.3747648,5.10146257 12.7112587,5.4296606 13.1248306,5.4296606 L16.4998157,5.4296606 L16.4998157,22.0106794 L16.4998157,22.0106794 Z" id="形状"></path>
                                </g>
                                <g id="编组-61" transform="translate(0.000000, 9.000000)" fill="#FFFFFF" stroke="#000000" stroke-width="1.5">
                                    <rect id="矩形" x="0.75" y="0.75" width="20.5" height="8.5" rx="1"></rect>
                                </g>
                            </g>
                        </g>
                    </g>
                </g>
            </g>
        </g>
    </g>
</svg>