<?xml version="1.0" encoding="UTF-8"?>
<svg width="30px" height="30px" viewBox="0 0 30 30" version="1.1" xmlns="http://www.w3.org/2000/svg" xmlns:xlink="http://www.w3.org/1999/xlink">
    <!-- Generator: Sketch 59 (86127) - https://sketch.com -->
    <title>编组 70</title>
    <desc>Created with Sketch.</desc>
    <g id="页面-1" stroke="none" stroke-width="1" fill="none" fill-rule="evenodd">
        <g id="云-报告" transform="translate(-1152.000000, -6707.000000)">
            <g id="编组-93" transform="translate(243.000000, 6090.000000)">
                <g id="编组-72" transform="translate(36.000000, 89.000000)">
                    <g id="编组-54" transform="translate(0.000000, 0.858377)">
                        <g id="编组-71" transform="translate(828.000000, 527.172712)">
                            <g id="编组-70" transform="translate(45.000000, 0.000000)">
                                <rect id="矩形" stroke="#537EF3" stroke-width="2" fill="#FFFFFF" x="1" y="1" width="28" height="27.8963731" rx="2"></rect>
                                <g id="放大复制" transform="translate(5.000000, 4.982729)" fill="#537EF3" fill-rule="nonzero">
                                    <path d="M15.3091749,17.5230043 C13.7423334,18.5544634 11.8539168,19.1566726 9.82128241,19.1566726 C4.39714091,19.1566726 0,14.8683024 0,9.5783363 C0,4.28837016 4.39714091,0 9.82128241,0 C15.2454239,0 19.6425648,4.28837016 19.6425648,9.5783363 C19.6425648,11.7795231 18.8812256,13.8072995 17.6013553,15.4248251 L19.5524557,17.3276616 C20.149092,17.9095392 20.1492972,18.8527477 19.5523768,19.434902 L19.4913605,19.494409 C18.8946805,20.0763291 17.9274282,20.0764802 17.3306718,19.4944859 L15.3091747,17.5229939 L15.3091749,17.5230043 Z M9.82128241,17.0281534 C14.0400688,17.0281534 17.4600576,13.6927639 17.4600576,9.5783363 C17.4600576,5.46390873 14.0400688,2.12851918 9.82128241,2.12851918 C5.60249599,2.12851918 2.1825072,5.46390873 2.1825072,9.5783363 C2.1825072,13.6927639 5.60249599,17.0281534 9.82128241,17.0281534 Z M11.0562388,10.7827865 L14.5029197,10.7827865 C15.037682,10.7827865 15.2775504,10.5488304 15.2775504,10.0272963 L15.2775504,9.12939329 C15.2775504,8.60785927 15.037682,8.37392437 14.5029197,8.37392437 L11.0562607,8.37392437 L8.58630853,8.37392437 L5.1396495,8.37392437 C4.60488722,8.37392437 4.36501877,8.60788055 4.36501877,9.12941458 L4.36501877,10.0273176 C4.36501877,10.5488516 4.60488722,10.7827865 5.1396495,10.7827865 L8.58633035,10.7827865 L11.0562388,10.7827865 Z" id="形状"></path>
                                </g>
                            </g>
                        </g>
                    </g>
                </g>
            </g>
        </g>
    </g>
</svg>